<?xml version="1.0" standalone="no"?>
<!DOCTYPE svg PUBLIC "-//W3C//DTD SVG 20010904//EN"
 "http://www.w3.org/TR/2001/REC-SVG-20010904/DTD/svg10.dtd">
<svg version="1.0" xmlns="http://www.w3.org/2000/svg"
 width="700.000000pt" height="700.000000pt" viewBox="0 0 700.000000 700.000000"
 preserveAspectRatio="xMidYMid meet">
<metadata>
Created by potrace 1.14, written by Peter Selinger 2001-2017
</metadata>
<g transform="translate(0.000000,700.000000) scale(0.100000,-0.100000)"
fill="#000000" stroke="none">
<path d="M3295 6723 c-686 -44 -1366 -322 -1890 -774 -608 -524 -994 -1251
-1097 -2069 -20 -158 -17 -612 6 -769 71 -506 239 -957 509 -1363 488 -737
1228 -1231 2102 -1402 198 -39 328 -50 590 -50 279 0 404 12 638 59 749 152
1432 588 1901 1212 339 451 552 975 633 1553 22 158 25 602 5 760 -115 912
-577 1702 -1307 2235 -278 203 -614 370 -952 474 -355 109 -770 158 -1138 134z
m425 -593 c1039 -91 1928 -786 2262 -1769 146 -431 176 -928 83 -1376 -138
-667 -537 -1258 -1105 -1640 -332 -223 -684 -358 -1097 -422 -152 -23 -574
-23 -726 0 -568 88 -1054 325 -1454 711 -429 412 -697 945 -785 1561 -20 138
-17 542 5 685 91 589 339 1084 746 1491 549 548 1307 825 2071 759z"/>
<path d="M3437 5540 c-92 -23 -169 -88 -209 -175 l-23 -50 -3 -655 -3 -655
-51 -35 c-133 -94 -238 -299 -238 -470 0 -65 25 -171 56 -241 l27 -61 -621
-621 -622 -622 107 -108 107 -108 626 624 625 625 52 -25 c61 -28 169 -53 233
-53 171 0 376 105 470 238 l35 51 800 3 800 3 57 28 c110 54 173 153 172 272
-1 123 -61 217 -173 269 -46 21 -53 21 -851 24 l-805 4 -43 58 c-24 33 -69 78
-102 102 l-58 43 -4 655 -3 655 -23 51 c-57 126 -209 205 -335 174z m165
-1772 c22 -6 62 -31 88 -55 153 -137 116 -372 -75 -471 -177 -91 -402 60 -398
268 1 74 19 124 64 175 83 94 191 122 321 83z"/>
</g>
</svg>
